grf
version=1
nRows=7
nColumns=37
inDegrees=no
endheader
time	ground_force_1_vx	ground_force_1_vy	ground_force_1_vz	ground_force_1_px	ground_force_1_py	ground_force_1_pz	ground_moment_1_mx	ground_moment_1_my	ground_moment_1_mz	ground_force_2_vx	ground_force_2_vy	ground_force_2_vz	ground_force_2_px	ground_force_2_py	ground_force_2_pz	ground_moment_2_mx	ground_moment_2_my	ground_moment_2_mz	ground_force_3_vx	ground_force_3_vy	ground_force_3_vz	ground_force_3_px	ground_force_3_py	ground_force_3_pz	ground_moment_3_mx	ground_moment_3_my	ground_moment_3_mz	ground_force_4_vx	ground_force_4_vy	ground_force_4_vz	ground_force_4_px	ground_force_4_py	ground_force_4_pz	ground_moment_4_mx	ground_moment_4_my	ground_moment_4_mz
      5.22000000	      0.00000000	     -0.00000000	      0.00000000	      0.00000000	      0.00000000	      0.00000000	      0.00000000	      0.00000000	      0.00000000	    -48.72916794	    155.26037598	   -698.34478760	   -275.89845338	  -1210.88392859	      0.00000000	      0.00000000	     -0.00000000	  -4804.83142394	    -98.85311347	   -199.76727957	  -1016.75347900	   -278.10313432	   -697.18833118	      0.00000000	      0.00000000	      0.00000000	   2836.13882912	      0.00000000	     -0.00000000	      0.00000000	      0.00000000	      0.00000000	      0.00000000	      0.00000000	      0.00000000	      0.00000000
      5.23000000	      0.00000000	     -0.00000000	      0.00000000	      0.00000000	      0.00000000	      0.00000000	      0.00000000	      0.00000000	      0.00000000	     45.42120743	    262.67822266	  -1280.38366699	   -337.40085002	  -1207.57348380	      0.00000000	      0.00000000	     -0.00000000	    410.96505556	    444.94763881	   -269.25870589	  -2655.16381836	   -366.55372031	   -714.54021582	      0.00000000	      0.00000000	     -0.00000000	  -6458.29894289	      0.00000000	     -0.00000000	      0.00000000	      0.00000000	      0.00000000	      0.00000000	      0.00000000	      0.00000000	      0.00000000
      5.24000000	      0.00000000	     -0.00000000	      0.00000000	      0.00000000	      0.00000000	      0.00000000	      0.00000000	      0.00000000	      0.00000000	    638.38867188	    262.06530762	  -1794.47656250	   -379.20669764	  -1201.58397078	      0.00000000	      0.00000000	      0.00000000	  11429.63272032	    356.78742722	   -204.15394660	  -1730.13146973	   -359.41630329	   -711.60119487	      0.00000000	      0.00000000	     -0.00000000	  -5864.02758369	      0.00000000	     -0.00000000	      0.00000000	      0.00000000	      0.00000000	      0.00000000	      0.00000000	      0.00000000	      0.00000000
      5.25000000	      0.00000000	     -0.00000000	      0.00000000	      0.00000000	      0.00000000	      0.00000000	      0.00000000	      0.00000000	      0.00000000	    138.30621338	    261.77490234	  -1367.77917480	   -342.84385856	  -1206.22575078	      0.00000000	      0.00000000	      0.00000000	   4528.27938995	    -84.45859369	   -243.66173578	  -1196.27551270	   -319.39592355	   -704.29465327	      0.00000000	     -0.00000000	     -0.00000000	  -3224.62091400	      0.00000000	     -0.00000000	      0.00000000	      0.00000000	      0.00000000	      0.00000000	      0.00000000	      0.00000000	      0.00000000
      5.26000000	      0.00000000	     -0.00000000	      0.00000000	      0.00000000	      0.00000000	      0.00000000	      0.00000000	      0.00000000	      0.00000000	   -128.41223145	    201.84815979	   -983.07366943	   -298.39325338	  -1209.06051663	      0.00000000	      0.00000000	     -0.00000000	  -3388.95963717	   -192.34755109	   -193.43353116	   -890.36059570	   -289.05022306	   -701.98273816	      0.00000000	      0.00000000	     -0.00000000	  -1252.24978623	      0.00000000	     -0.00000000	      0.00000000	      0.00000000	      0.00000000	      0.00000000	      0.00000000	      0.00000000	      0.00000000
      5.27000000	      0.00000000	     -0.00000000	      0.00000000	      0.00000000	      0.00000000	      0.00000000	      0.00000000	      0.00000000	      0.00000000	   -104.09284210	    149.28863525	   -810.88208008	   -279.80423638	  -1207.27033158	      0.00000000	      0.00000000	     -0.00000000	  -2692.31848953	   -144.71943627	   -170.27539323	   -877.78210449	   -293.44656681	   -703.88422777	      0.00000000	      0.00000000	     -0.00000000	  -3324.41051465	      0.00000000	     -0.00000000	      0.00000000	      0.00000000	      0.00000000	      0.00000000	      0.00000000	      0.00000000	      0.00000000
      5.28000000	      0.00000000	     -0.00000000	      0.00000000	      0.00000000	      0.00000000	      0.00000000	      0.00000000	      0.00000000	      0.00000000	    -48.14027786	    139.33328247	   -744.31732178	   -275.66739197	  -1206.56539322	      0.00000000	      0.00000000	     -0.00000000	  -1524.09511041	    -35.94715825	   -168.11593314	  -1015.64410400	   -316.56039967	   -709.75462024	      0.00000000	      0.00000000	     -0.00000000	  -5950.57191551	      0.00000000	     -0.00000000	      0.00000000	      0.00000000	      0.00000000	      0.00000000	      0.00000000	      0.00000000	      0.00000000
